<svg width="180" height="19" viewBox="0 0 180 19" fill="none" xmlns="http://www.w3.org/2000/svg">
<g clip-path="url(#clip0_11538_1516)">
<path d="M166.096 4.81055L174.6 9.48282L166.078 14.1983L166.096 4.81055Z" fill="#F62121"/>
<path d="M173.288 2.29736C170.154 0.570086 166.16 -0.846278 163.543 0.570086C160.925 1.98645 160.192 6.04554 160.192 9.50009C160.192 12.9546 160.853 16.9274 163.543 18.4042C166.233 19.881 170.172 18.4474 173.297 16.7201C176.421 14.9928 179.709 12.471 179.709 9.50872C179.709 6.54645 176.412 4.02463 173.288 2.29736ZM164.494 2.16781C166.169 1.25236 169.131 2.116 172.328 3.89509C175.525 5.67418 177.762 7.67781 177.762 9.50872C177.762 11.3396 175.561 13.3605 172.328 15.1483C169.094 16.936 166.142 17.7392 164.476 16.8324C162.809 15.9255 162.112 13.0064 162.112 9.50009C162.112 5.99372 162.827 3.08327 164.494 2.16781V2.16781Z" fill="#F62121"/>
<path d="M117.066 6.90936C116.094 6.1588 114.865 5.7774 113.615 5.83845C113.615 5.83845 112.565 5.83845 109.875 5.83845C107.185 5.83845 106.144 5.83845 106.144 5.83845C104.894 5.77575 103.665 6.15734 102.693 6.90936C102.285 7.24389 101.961 7.66083 101.743 8.1299C101.525 8.59897 101.42 9.10839 101.434 9.62118C101.434 13.2916 105.265 13.5507 105.963 13.5507C105.963 13.5507 107.774 13.5507 109.775 13.5507C111.777 13.5507 113.969 13.5507 113.969 13.5507C114.63 13.5507 118.497 13.2916 118.497 9.62118C118.491 9.0951 118.359 8.57732 118.111 8.10735C117.863 7.63738 117.505 7.22763 117.066 6.90936ZM111.877 12.4194C111.211 12.484 110.541 12.484 109.875 12.4194C109.207 12.4824 108.533 12.4824 107.865 12.4194C107.487 12.432 107.111 12.3693 106.76 12.2354C106.409 12.1014 106.091 11.8992 105.827 11.6415C105.563 11.3839 105.358 11.0765 105.225 10.739C105.093 10.4015 105.035 10.0414 105.057 9.68163C105.047 9.31942 105.114 8.95903 105.253 8.6219C105.393 8.28477 105.601 7.97777 105.868 7.71916C106.134 7.46054 106.452 7.25559 106.802 7.11647C107.153 6.97736 107.53 6.90693 107.91 6.90936C107.91 6.90936 108.009 6.90936 109.875 6.90936C111.741 6.90936 111.849 6.90936 111.849 6.90936C112.233 6.90332 112.614 6.97168 112.97 7.11029C113.325 7.2489 113.647 7.45486 113.916 7.7157C114.185 7.97654 114.396 8.28682 114.536 8.62772C114.676 8.96863 114.742 9.33305 114.729 9.69891C114.744 10.0582 114.679 10.4165 114.541 10.7508C114.402 11.0852 114.192 11.3883 113.923 11.641C113.655 11.8936 113.334 12.0902 112.982 12.2183C112.63 12.3463 112.253 12.4031 111.877 12.3848V12.4194Z" fill="#F62121"/>
<path d="M134.943 10.9856C134.508 10.6315 134.472 10.3637 134.816 10.1824C135.903 9.62965 136.908 9.08556 136.908 8.02329C136.908 7.15965 136.075 5.91602 133.539 5.91602H121.132V13.4815H124.465C125.117 13.4815 125.144 13.231 125.144 12.8856V7.15965H132.389C132.629 7.10583 132.882 7.14519 133.092 7.26909C133.302 7.393 133.451 7.59128 133.508 7.82033C133.564 8.04938 133.523 8.29044 133.393 8.49046C133.263 8.69049 133.055 8.8331 132.815 8.88693C132.335 9.13738 131.701 9.3792 131.311 9.5692C130.75 9.8542 130.406 10.3724 131.112 11.1497C131.674 11.7197 132.299 12.3156 133.05 12.9892C133.267 13.2214 133.541 13.3977 133.849 13.5019C134.156 13.6061 134.485 13.6347 134.807 13.5851H138.321C138.321 13.5851 135.758 11.6506 134.943 10.9856Z" fill="#F62121"/>
<path d="M153.869 6.04517H139.08V6.9088C139.08 7.24562 139.47 7.24562 139.47 7.24562H143.862C144.487 7.24562 144.487 7.72926 144.487 7.72926V13.5329H148.109C148.173 13.5377 148.237 13.5298 148.297 13.5098C148.358 13.4898 148.413 13.4582 148.46 13.4168C148.506 13.3754 148.544 13.3252 148.569 13.2694C148.595 13.2135 148.608 13.1533 148.608 13.0924V7.72926C148.608 7.72926 148.608 7.24562 149.232 7.24562H153.489C153.489 7.24562 153.887 7.24562 153.887 6.90017L153.869 6.04517Z" fill="#F62121"/>
<path d="M47.7559 6.04517H32.8398V6.9088C32.8398 7.25426 33.2293 7.25426 33.2293 7.25426H37.6217C38.2466 7.25426 38.2466 7.73789 38.2466 7.73789V13.5329H41.8692C41.9321 13.5364 41.9951 13.5277 42.0543 13.5071C42.1135 13.4866 42.1677 13.4547 42.2135 13.4134C42.2593 13.3722 42.2958 13.3224 42.3207 13.2672C42.3456 13.212 42.3584 13.1525 42.3582 13.0924C42.3582 13.0924 42.3582 7.73789 42.3582 7.73789C42.3582 7.73789 42.3582 7.25426 42.9922 7.25426H47.3665C47.3665 7.25426 47.7559 7.25426 47.7559 6.9088V6.04517Z" fill="#F62121"/>
<path d="M10.741 5.88989H0V12.9544C0.0016214 13.0379 0.0218995 13.1201 0.0594811 13.1956C0.0970628 13.271 0.151083 13.3379 0.217938 13.3919C0.284793 13.4458 0.362944 13.4856 0.447177 13.5084C0.531409 13.5313 0.619785 13.5367 0.706408 13.5244H10.8678C11.5923 13.5244 15.9485 13.5244 15.9485 9.66398C15.9576 8.54126 15.1244 5.88989 10.741 5.88989ZM9.19236 12.2635H4.6641C4.48312 12.2705 4.30558 12.2149 4.16415 12.107C4.02271 11.9991 3.92689 11.8462 3.8943 11.6763C3.8943 11.6763 3.8943 7.21126 3.8943 7.21126H9.19236C9.89372 7.21126 10.5664 7.47695 11.0623 7.94988C11.5582 8.42281 11.8369 9.06425 11.8369 9.73307C11.8369 10.4019 11.5582 11.0433 11.0623 11.5163C10.5664 11.9892 9.89372 12.2549 9.19236 12.2549V12.2635Z" fill="#F62121"/>
<path d="M25.2316 6.99556C25.3493 6.99556 25.7478 6.99556 25.8655 7.17693C25.9832 7.35829 28.3561 11.5901 28.9447 12.5574C29.1567 12.8645 29.4502 13.1127 29.7954 13.2765C30.1406 13.4403 30.5252 13.514 30.91 13.4901H33.7175L29.3523 6.65874C28.8994 5.96783 27.867 5.91602 25.2316 5.91602C22.5961 5.91602 21.5546 5.96783 21.1199 6.65874L16.7456 13.4901H19.5531C19.9382 13.5159 20.3234 13.4429 20.669 13.279C21.0145 13.115 21.3078 12.8658 21.5184 12.5574C22.1071 11.5901 24.4255 7.45329 24.5976 7.17693C24.7697 6.90056 25.1229 6.99556 25.2316 6.99556Z" fill="#F62121"/>
<path d="M55.4733 6.99556C55.5819 6.99556 55.9804 6.99556 56.0982 7.17693C56.2159 7.35829 58.5978 11.5901 59.1774 12.5574C59.3901 12.8659 59.6851 13.1148 60.0321 13.2787C60.379 13.4427 60.7654 13.5156 61.1517 13.4901H63.9502L59.5849 6.65874C59.1412 5.96783 58.1087 5.91602 55.4642 5.91602C52.8197 5.91602 51.7963 5.96783 51.3526 6.65874C51.3526 6.65874 46.9783 13.4901 46.9873 13.4901H49.8129C50.1966 13.5152 50.5803 13.4419 50.9243 13.2779C51.2683 13.1139 51.56 12.8651 51.7692 12.5574C52.3578 11.5901 54.6854 7.45329 54.8574 7.17693C55.0295 6.90056 55.3646 6.99556 55.4733 6.99556Z" fill="#F62121"/>
<path d="M95.5114 5.91602H83.0044V13.5592H86.147C86.6994 13.5592 86.7628 13.3087 86.7628 12.9633V11.141V7.22011H93.9084C94.0996 7.20099 94.2929 7.21978 94.4761 7.27529C94.6593 7.33079 94.8286 7.42182 94.9731 7.54266C95.1177 7.6635 95.2345 7.81153 95.3162 7.97747C95.398 8.14341 95.4428 8.32367 95.448 8.50693C95.457 8.69634 95.4246 8.88548 95.3526 9.06226C95.2807 9.23904 95.171 9.39958 95.0304 9.53366C94.8898 9.66774 94.7214 9.7724 94.536 9.84097C94.3507 9.90954 94.1523 9.94052 93.9537 9.93193H89.0632C89.1524 10.3133 89.3873 10.6493 89.7222 10.8744C90.0571 11.0995 90.4679 11.1977 90.8745 11.1497H95.4843C98.7446 11.1497 99.1069 9.31011 99.1069 8.44647C99.1069 7.58283 98.5001 5.91602 95.5114 5.91602Z" fill="#F62121"/>
<path d="M75.0432 10.3637C76.2024 7.72102 76.6281 7.23738 78.6658 7.23738H81.3012V5.91602H75.8854C73.9473 5.91602 72.8696 6.58965 72.1994 7.83329C71.8372 8.50692 71.1398 9.87147 70.8228 10.4242C69.9806 11.9787 69.41 12.2465 67.807 12.2465H64.8184C65.0523 12.643 65.3995 12.9679 65.8195 13.1835C66.2396 13.3991 66.7153 13.4964 67.1912 13.4642H71.1126C73.6122 13.4901 74.0198 12.6783 75.0432 10.3637Z" fill="#F62121"/>
</g>
<defs>
<clipPath id="clip0_11538_1516">
<rect width="179.708" height="19" fill="white"/>
</clipPath>
</defs>
</svg>
